name ./resultDataOpenSim/trcMotMarkerGrf/sub06/grf-01-08.mot
datacolumns 19
datarows 15
range 0.94400000 1.00000000
endheader

                time	     ground_force_vx	     ground_force_vy	     ground_force_vz	     ground_force_px	     ground_force_py	     ground_force_pz	   l_ground_force_vx	   l_ground_force_vy	   l_ground_force_vz	   l_ground_force_px	   l_ground_force_py	   l_ground_force_pz	     ground_torque_x	     ground_torque_y	     ground_torque_z	   l_ground_torque_x	   l_ground_torque_y	   l_ground_torque_z	
          0.94400000	          0.00000000	          0.00000000	          0.00000000	          0.00000000	          0.00000000	          0.00000000	         56.39513659	        550.29168028	         24.51388055	          0.11388117	          0.00000000	         -0.02049810	          0.00000000	          0.00000000	          0.00000000	          0.00000000	         -2.13883063	          0.00000000	
          0.94800000	          0.00000000	          0.00000000	          0.00000000	          0.00000000	          0.00000000	          0.00000000	         60.89329870	        569.12318074	         25.54705999	          0.11440433	          0.00000000	         -0.02025880	          0.00000000	          0.00000000	          0.00000000	          0.00000000	         -2.21770960	          0.00000000	
          0.95200000	          0.00000000	          0.00000000	          0.00000000	          0.00000000	          0.00000000	          0.00000000	         65.69744670	        588.20488868	         26.52431922	          0.11491911	          0.00000000	         -0.02003239	          0.00000000	          0.00000000	          0.00000000	          0.00000000	         -2.29590255	          0.00000000	
          0.95600000	          0.00000000	          0.00000000	          0.00000000	          0.00000000	          0.00000000	          0.00000000	         70.79592260	        607.39762017	         27.44604203	          0.11545796	          0.00000000	         -0.01981237	          0.00000000	          0.00000000	          0.00000000	          0.00000000	         -2.37515883	          0.00000000	
          0.96000000	          0.00000000	          0.00000000	          0.00000000	          0.00000000	          0.00000000	          0.00000000	         76.18439339	        626.57096697	         28.33535608	          0.11603667	          0.00000000	         -0.01959055	          0.00000000	          0.00000000	          0.00000000	          0.00000000	         -2.45725382	          0.00000000	
          0.96400000	          0.00000000	          0.00000000	          0.00000000	          0.00000000	          0.00000000	          0.00000000	         81.87478394	        645.62434770	         29.22171315	          0.11662326	          0.00000000	         -0.01935956	          0.00000000	          0.00000000	          0.00000000	          0.00000000	         -2.54366606	          0.00000000	
          0.96800000	          0.00000000	          0.00000000	          0.00000000	          0.00000000	          0.00000000	          0.00000000	         87.88227714	        664.43520510	         30.10444605	          0.11716603	          0.00000000	         -0.01911067	          0.00000000	          0.00000000	          0.00000000	          0.00000000	         -2.63533512	          0.00000000	
          0.97200000	          0.00000000	          0.00000000	          0.00000000	          0.00000000	          0.00000000	          0.00000000	         94.21452610	        682.79236959	         30.94440694	          0.11765139	          0.00000000	         -0.01882969	          0.00000000	          0.00000000	          0.00000000	          0.00000000	         -2.73244547	          0.00000000	
          0.97600000	          0.00000000	          0.00000000	          0.00000000	          0.00000000	          0.00000000	          0.00000000	        100.87637455	        700.39961750	         31.69620798	          0.11812012	          0.00000000	         -0.01850012	          0.00000000	          0.00000000	          0.00000000	          0.00000000	         -2.83432447	          0.00000000	
          0.98000000	          0.00000000	          0.00000000	          0.00000000	          0.00000000	          0.00000000	          0.00000000	        107.86903154	        716.92663255	         32.33551003	          0.11862815	          0.00000000	         -0.01811348	          0.00000000	          0.00000000	          0.00000000	          0.00000000	         -2.93964569	          0.00000000	
          0.98400000	          0.00000000	          0.00000000	          0.00000000	          0.00000000	          0.00000000	          0.00000000	        115.16460801	        732.05456735	         32.84483207	          0.11920076	          0.00000000	         -0.01767623	          0.00000000	          0.00000000	          0.00000000	          0.00000000	         -3.04693757	          0.00000000	
          0.98800000	          0.00000000	          0.00000000	          0.00000000	          0.00000000	          0.00000000	          0.00000000	        122.68738568	        745.52175193	         33.18198468	          0.11984878	          0.00000000	         -0.01720808	          0.00000000	          0.00000000	          0.00000000	          0.00000000	         -3.15508066	          0.00000000	
          0.99200000	          0.00000000	          0.00000000	          0.00000000	          0.00000000	          0.00000000	          0.00000000	        130.33496468	        757.16707370	         33.27789656	          0.12057657	          0.00000000	         -0.01672370	          0.00000000	          0.00000000	          0.00000000	          0.00000000	         -3.26338890	          0.00000000	
          0.99600000	          0.00000000	          0.00000000	          0.00000000	          0.00000000	          0.00000000	          0.00000000	        138.00268346	        766.94512796	         33.07313616	          0.12136449	          0.00000000	         -0.01623778	          0.00000000	          0.00000000	          0.00000000	          0.00000000	         -3.37109289	          0.00000000	
          1.00000000	          0.00000000	          0.00000000	          0.00000000	          0.00000000	          0.00000000	          0.00000000	        145.58342848	        774.88880004	         32.55976179	          0.12218306	          0.00000000	         -0.01576083	          0.00000000	          0.00000000	          0.00000000	          0.00000000	         -3.47639193	          0.00000000	
